<svg xmlns="http://www.w3.org/2000/svg" viewBox="0 0 2351 1380" fill="currentColor" role="img" aria-label="Studio DG"><path d="M56.8169 1376.22C34.8916 1368.79 21.651 1356.64 8.69514 1331.52L1.07824 1316.66L0.224039 698.907C-0.345449 144.531 -0.0606899 79.95 3.85454 67.4988C10.6172 46.7219 22.1493 31.9456 39.3052 21.8946L54.4678 12.9688H355.371C589.36 12.9688 662.468 13.8689 684.393 16.7942C843.28 38.9962 965.009 98.2517 1074.42 206.712C1105.1 236.94 1105.1 236.64 1089.87 255.616C1045.45 310.146 1001.88 399.33 985.012 470.136C982.164 481.687 979.103 491.438 978.249 491.438C977.395 491.438 972.626 482.287 967.287 470.661C941.161 413.206 875.314 345.325 809.538 307.971C765.688 283.369 707.173 263.792 656.844 257.266C639.688 255.166 577.828 254.266 470.693 254.866C320.561 255.766 309.812 256.066 300.558 261.392C286.748 269.118 275.5 280.669 269.094 294.02C263.47 305.271 263.47 310.896 263.755 690.732C264.324 1114.75 263.185 1086.62 281.765 1107.02C286.819 1112.65 295.86 1119.77 301.982 1123.3C313.229 1129.82 314.368 1129.82 477.74 1129.82C626.804 1129.82 644.743 1129.22 670.37 1124.2C796.938 1099.29 902.08 1016.04 955.826 898.726C983.659 838.27 991.276 796.492 995.191 688.031C996.9 642.727 998.822 601.548 999.676 596.448C1015.69 506.065 1028.93 457.76 1052.85 402.405C1128.24 229.364 1273.6 96.3015 1454.13 35.6209C1522.18 12.5187 1577.85 2.76786 1652.1 0.36764C1800.59 -4.3578 1939.76 36.521 2059.57 120.079C2136.3 173.709 2192.83 232.364 2242.09 309.996C2265.15 346.75 2295.26 407.805 2300.6 429.707C2303.66 442.759 2303.45 444.559 2298.04 451.91L2292.41 460.235L2171.75 461.135C2046.33 462.035 2031.16 461.135 2009.81 449.584C2004.18 446.359 1981.97 426.182 1960.62 404.88C1907.73 351.55 1864.73 321.922 1807.92 300.32C1732.25 271.593 1640.35 267.167 1561.33 288.769C1414.55 329.048 1305.42 436.008 1264.13 580.321C1253.17 618.575 1248.97 655.253 1247.26 727.56C1244.41 848.771 1227.04 932.629 1186.54 1020.31C1113.15 1180 969.422 1303.01 798.504 1352.44C727.674 1372.92 712.44 1374.95 591.851 1377.35C407.123 1381.47 70.7694 1380.57 56.9593 1376.15L56.8169 1376.22Z"/><path d="M1594.43 1376.15C1435.26 1358.97 1289.62 1283.96 1172.87 1158.93L1152.08 1136.72L1163.9 1121.05C1210.31 1060.29 1248.54 977.033 1263.99 904.726C1266.55 891.975 1270.18 881.625 1272.18 881.625C1273.88 881.625 1280.08 891.375 1285.7 903.226C1319.73 972.533 1397.04 1048.14 1473.28 1086.62C1640.28 1170.78 1841.38 1138.45 1971.86 1006.59C2015.43 962.407 2052.02 905.852 2049.46 886.575L2048.6 880.049L1848.93 878.549C1664.2 877.049 1648.39 876.749 1641.42 871.724C1618.92 856.347 1620.06 837.67 1645.62 794.991C1705.48 694.857 1715.1 680.006 1730.83 663.429C1744.92 648.578 1751.04 644.452 1766.85 639.127L1785.71 632.601H2042.19C2225.85 632.601 2301.17 633.501 2309.07 635.827C2323.66 640.552 2339.47 654.803 2345.66 669.28C2349.58 678.731 2351 688.857 2351 713.984C2351 768.814 2344.24 817.118 2327.94 879.299C2259.6 1141.82 2027.6 1340.67 1749.48 1374.72C1711.54 1379.45 1633.59 1380.05 1594.51 1375.92L1594.43 1376.15Z"/></svg>